# xmcd
#
# Track frame offsets:
#	150
#	16849
#	43389
#	62075
#	79556
#	100726
#	121761
#	137454
#	154414
#
# Disc length: 2409 seconds
#
# Revision: 0
# Processed by: cddbd v1.4PL0 Copyright (c) Steve Scherf et al.
# Submitted via: dBpowerAMP V4.0
#
DISCID=6a096709
DTITLE=Cracker - Countrysides
DYEAR=2003
DGENRE=Country
TTITLE0=Truckload of Art
TTITLE1=Duty Free
TTITLE2=Up Against the Wall Redneck Mothers
TTITLE3=Sinaloa Cowboys
TTITLE4=Family Tradition
TTITLE5=The Bottle Let Me Down
TTITLE6=Reasons to Quit
TTITLE7=Buenas Noches From A Lonely Room
TTITLE8=Ain't Gonna Suck Itself
EXTD=
EXTT0=
EXTT1=
EXTT2=
EXTT3=
EXTT4=
EXTT5=
EXTT6=
EXTT7=
EXTT8=
PLAYORDER=
